<svg viewBox="0 0 566.93 323.44" xmlns="http://www.w3.org/2000/svg"><g fill="#1d1d1b" transform="translate(-22.08 -37.83)"><path d="m30.3 360.72a24.37 24.37 0 0 1 -6.41-1.4 2.81 2.81 0 0 1 -1.8-2.39c.07-1.16 1.31-2.17 3.71-3 5.69-2 12.14-7.3 16.54-11.39 2.18-2 4.34-4.16 6.43-6.22 1.94-1.92 3.95-3.9 6-5.8 1-.95 1.89-1.87 2.81-2.84a49.87 49.87 0 0 1 7.42-6.68c7.34-5.32 12.09-6.68 19.36-7.59a18.46 18.46 0 0 1 4-.15c2.8.26 3.57 1.53 4 2.85l.24.78c1.52 4.92 2.15 6.95 6.37 11.26.2.2.41.37.62.55 1.56 1.33 2.43 2.58-.75 6.56a78.61 78.61 0 0 1 -17.39 15.89c-7.84 5-14.7 7-22.59 8.49-10.43 2-17.65 1.91-28.13 1.11zm52.27-41.33a23.43 23.43 0 0 0 -7.92 2.61 44.37 44.37 0 0 0 -7.28 4.77 38.83 38.83 0 0 0 -5.11 4.86c-2.37 2.5-.46 3.22 1.35 1.83s2.78-2.28 4-3.27a24.69 24.69 0 0 1 4.48-2.91 60.1 60.1 0 0 1 12.35-4.69c1.66-.38 1.15-3.75-1.87-3.2z"/><path d="m583 239.34c-.06-3.71-1.35-5.45-4.74-6.44a40.21 40.21 0 0 0 -7.38-1.39 59.06 59.06 0 0 0 -16.71.94c-1.17.23-2.35.47-3.53.73a58.86 58.86 0 0 1 -13 1.75c-2.59-.05-4.86 0-7.26.07-1.83.05-3.73.1-5.77.1s-4.54-.11-7.22-.3a5.37 5.37 0 0 1 -4.26-2.49 27.42 27.42 0 0 0 -3.52-4.28c-2.92-2.46-5.93-4.9-8.84-7.26l-4.77-3.77-2.09-1.7c-2.11-1.71-4.29-3.48-6.35-5.31a27.1 27.1 0 0 1 -6.13-7.91 390.31 390.31 0 0 0 -23.06-39.14 47.12 47.12 0 0 0 -3.81-5 156.17 156.17 0 0 0 -15-15.61l-.31-.25a3.43 3.43 0 0 1 -1.25-1.78l.41-.32a14.33 14.33 0 0 1 1.33-1c.6-.38 1.22-.74 1.84-1.1s1.36-.79 2-1.22q4-2.56 8-5.16c4.83-3.13 9.82-6.36 14.8-9.43 19.77-12.22 39.67-25 58.92-37.27s39.11-25 58.87-37.24a16.31 16.31 0 0 0 3.92-3.4 3.75 3.75 0 0 0 .74-3.62 4 4 0 0 0 -2.89-2.54 7.09 7.09 0 0 0 -3.07 0 14.18 14.18 0 0 0 -3.18 1.28l-3.78 2c-4.18 2.17-8.51 4.42-12.7 6.74-10.88 6-22.59 12.08-38 19.65l-4.56 2.24c-15.53 7.63-31.59 15.52-47.32 23.42-6.52 3.27-13.07 6.76-19.4 10.13-3.21 1.7-6.41 3.41-9.62 5.1-2.66 1.39-5.32 2.76-8 4.14q-5.07 2.63-10.12 5.27c-1.46.77-2.84 1.59-4.32 2.47l-1.56.92-.26-.4c-.29-.45-.56-.87-.84-1.29a73.83 73.83 0 0 0 -6.1-7.58l-.63-.73a61.84 61.84 0 0 0 -11.7-10.78 45.15 45.15 0 0 0 -5.86-3.3c-1.67-.81-3.28-1.66-4.83-2.49-2.56-1.36-5-2.65-7.72-3.8-4.54-1.91-8.68-3.27-12.69-4.58-3.41-1.11-6.93-2.26-10.62-3.73a158.61 158.61 0 0 0 -17.26-5.83l-2.74-.79c-3.78-1.13-5.5-1.65-15.91-2.15-18.56-1-38.72 5.87-39.57 6.17-1.61.55-4.56 1.83-8.29 3.45-5.38 2.34-12.07 5.25-18.91 7.82-2.81 1.06-5.42 2-7.94 2.91-9.22 3.32-15.89 5.72-17.76 8.77-2.73 4.43 1.58 14.34 6.55 17.71s11.6 6.61 25.76 1.22a9.67 9.67 0 0 1 -2.89 2.2c-1.19.67-2.49 1.44-3.85 2.24a122.34 122.34 0 0 1 -11.47 6.2 100.62 100.62 0 0 0 -21.27 13.55l-2.42 2c-8.86 6.21-12.13 7.6-15.21 8.67l-.2.07a37.72 37.72 0 0 1 -4.07 1.18l-.61.13c-5.44 1.19-11.61 2.52-15 5.2a10.82 10.82 0 0 0 -4.35 10.26c0 .27.07.57.1.88a23.08 23.08 0 0 0 4.67 12.29c-6.12-.92-16-1.81-20.17 1-5.68 3.82-9.19 14.38-5.16 23.42a13.78 13.78 0 0 0 7.54 7.49c-7.61 1.57-8.47 11.82-8.48 11.93-.82 9.17 2.46 15 11 19.46 5.52 2.89 12.86 4.1 16.81 4.56q-2.25 1.38-4.36 2.66c-1.09.67-1.91 1-2.51 1.37-9.06 5.72-18.38 10.88-27.23 16.23-9.18 5.55-18.67 11.29-28.07 17.26-6.73 4.27-14 8.94-23 14.69-1.13.72-2.2 1.57-3.23 2.38l-.11.09c-2 1.57-2.71 3.79-2.14 6.59a15.8 15.8 0 0 0 4.58 8.14 5.21 5.21 0 0 0 5.83 1.3 49 49 0 0 0 4.67-2.16c.7-.36 1.39-.76 2.06-1.15s1.59-.91 2.4-1.31c23.75-11.5 45.57-22.54 66.71-33.74l3-1.65 1-.57a.68.68 0 0 1 .61 0c.47.28.81 1.34.91 2.91.05.72 0 1.47 0 2.19v1.13c0 3 .93 4.21 3.76 4.85a30.93 30.93 0 0 0 6.67.85 49 49 0 0 1 16.49 3.07c5.77 2.09 11.59 4.37 17.21 6.58l5.83 2.28c8.25 3.2 15.5 8 21.52 12.21l.45.32c4.47 3.16 9.1 6.43 13.72 9.56a31.87 31.87 0 0 0 16.13 5.62c3.56.21 7.18.24 10.68.28h2.09a106.68 106.68 0 0 1 18.66 1.77l3.17.61c4.41.86 9 1.74 13.48 2.24a160.14 160.14 0 0 1 27 5.55 181.6 181.6 0 0 0 31.2 6.21l3.34.33c2.94.27 6.15.5 9.41.56 5.54.1 11.09-.13 15.31-.34 6-.29 10.69-.64 15.07-1.12 7-.77 13.87-2.79 20.26-4.81a262.38 262.38 0 0 1 36.7-8.77 56.44 56.44 0 0 1 23.95 1 144 144 0 0 0 26.11 4.63c3.09.25 4.66-.71 5.58-3.42a30.72 30.72 0 0 0 1.58-6.76c.71-7 1.26-14 1.85-21.75a43.88 43.88 0 0 1 2-11.08c3.74-10.82 8-23.08 15.35-33.51.35-.51.67-1 1-1.57l.28-.46a43.82 43.82 0 0 0 5.53-12.66c.86-3.68 1.61-7.44 2.33-11.09v-.08a12.75 12.75 0 0 0 .21-2.81zm-338.82-138.34c2.24-1.29 6.58-2.45 8.39-3.26s2.73-1.11 4.43-1.74c4.17-1.54 5.47 3.28 5.61 3.65.5 1.36 1.1 2.45-.13 3.43-1.85 1.47-12.64 4.94-13.89 5.33-1 .3-3.34 1.27-5.39-4.89-.52-1.32-.08-1.95.98-2.52zm-44.88 62.3 1.76-.44a25.33 25.33 0 0 0 4.87-1.55l1-.43a41.78 41.78 0 0 0 4.45-2.09c.73-.41 1.74-.92 2.72-1.42s1.65-.84 2.28-1.18a.83.83 0 0 1 .51-.12c.68.06 1.35 1.12 1.94 2.07l.31.47a4.57 4.57 0 0 1 .79 3c-.26 1.79-9.13 6.86-15.31 8.75a18.46 18.46 0 0 1 -1.9.5 5.68 5.68 0 0 1 -2.37.33c-2-.18-3.38-1.73-4-4.46-.28-1.25.34-2.81 2.95-3.47zm-9.59 3.1.34-.19a1.2 1.2 0 0 1 .64-.17c.22 0 .56.19.88 1.39.13.46.22.85.31 1.2a15.47 15.47 0 0 0 1 3c1 2.33 3.82 4.1 7 4.39a8.52 8.52 0 0 0 2.38-.09c2.52-.47 18.37-7.79 20.19-9.33a8.21 8.21 0 0 1 1-.66c1.8-1.09 3.84-2.33.1-9.22-.95-1.7-2.08-2.75-.41-3.84 1.12-.73 2.87-2 4.91-3.59 4.27-3.24 10.13-7.67 14.05-9.41 3.14-1.4 16.75-8 20.53-11.19.32-.27 1.09-.84 2.06-1.57 1.51-1.12 3.57-2.65 5.51-4.21l3.21-2.41c.34-.22 4.2-1.88 7.31-3.21 2.92-1.25 5.67-2.43 6.69-2.92 5.46-2.6 12.85-5.3 15.81-5.77.92-.15 1.83-.37 2.72-.58a31.45 31.45 0 0 1 3.21-.65l.68-.09a36.89 36.89 0 0 1 7-.47c3.6.24 7.37.54 11.19.89 3 .28 6.13.6 9.31 1 6.75.75 11.42 2.91 16.82 5.4a108 108 0 0 0 10.41 4.35l2.25.76c5.07 1.72 9.45 3.2 13.38 6.14a3.74 3.74 0 0 0 1.76.85 1 1 0 0 0 1.15-.77 1.5 1.5 0 0 0 -.27-1.35c-2.46-3.64-9.05-6.63-15.81-9.33a73.91 73.91 0 0 1 -11.06-5.5 32.74 32.74 0 0 0 -8.39-3.88c-5.06-1.41-6.34-1.62-8.47-1.81l-1-.1-3.42-.34c-3.72-.37-8.88-.88-13-1.23h-.16c-.76-.07-1.54-.18-2.29-.29a31.41 31.41 0 0 0 -3.8-.37c-9.51-.12-22.37 3.52-38.21 10.8-8.61 4-20.75 8.5-29.71 7.66a14.09 14.09 0 0 1 -6.91-2.3c-2.7-1.9-5.68-7.29-6-12-.08-1.17 3.21-2.21 3.28-2.2.59 0 .91 1.17 1.07 1.71v.13c.12.39.79 2.14 1.49 3.69 1.18 2.65 2.92 4.24 5.16 4.73a2.7 2.7 0 0 0 .41.06c1.61.15 4-.67 5.71-1.26l1.12-.38c4.31-1.35 11-4 12.2-4.5l.53-.2c1.44-.54 3.85-1.44 3-4.84-.25-1-.82-2.52-1.2-3.52l-.14-.35c-.33-.89-.71-1.68-1.05-2.38-.58-1.2-1-2.15-.82-2.74a1.49 1.49 0 0 1 .86-.72c12.08-5 29.2-10.82 37.62-12.68 5.72-1.26 13.19-1.47 22.19-.63 4.46.41 9.17 1.07 14 2a43.59 43.59 0 0 1 7.41 2.33l1.58.6 1.25.46c16.23 6 31.55 11.71 46.69 20.66a31.15 31.15 0 0 1 7 5.47 87.8 87.8 0 0 1 8.32 9.33c.64.84 1.24 1.71 1.9 2.65l.72 1-2.46 1.41c-3.36 1.95-6.83 4-10.41 5.61-4.15 1.91-8.19 4-11.94 6-4.2 2.21-8.45 4.51-12.56 6.73l-7.15 3.84a12.83 12.83 0 0 1 -1.55.7 2 2 0 0 1 -2.15-.34l-.33-.3a18.62 18.62 0 0 1 -1.63-1.57c-6.05-6.63-13.89-10.23-25.43-11.68l-.56-.07c-1.88-.24-3.82-.48-5.72-.66a44.09 44.09 0 0 0 -10.94.12c-4.66.7-9.41 1.32-14 1.92-2.31.3-4.63.6-6.94.92a71.38 71.38 0 0 0 -26.49 9.12c-3.82 2.21-7.66 4.52-11.37 6.76-3.23 1.95-6.57 4-9.88 5.9-2 1.19-4.15 2.32-6.2 3.41-1.46.78-3 1.58-4.46 2.41-4.92 2.75-10.26 5.75-11.45 6.53-7.09 4.65-24.34 13.81-32 14.74l-1.21.16a16.27 16.27 0 0 1 -3.75.25c-2.27-.21-4.8-1.4-6.36-8.64-1.14-4.34-1.53-8.56 1.75-10.72zm-10.71 24.86h.74c1.7.09 4.85.23 5.92.33h.24a73 73 0 0 0 11.24-.24 4.77 4.77 0 0 1 1.15-.09c.54.05.82.24 1 1.72.09.67.22 1.3.35 1.91a13.8 13.8 0 0 1 .38 4.07c-.21 2.36-2.69 2.91-7.9 3.52a75 75 0 0 1 -9.78 0 12.11 12.11 0 0 1 -1.38-.2c-2.59-.56-3.76-2.17-4.19-5.76a13.69 13.69 0 0 1 -.05-3.41c.28-1.4.88-1.91 2.28-1.85zm-14.4 9.31c.56-6 2.88-8.12 3.85-8.77a11.1 11.1 0 0 1 2.58-1.15c.8-.27.62.55.58.91a16.83 16.83 0 0 0 -.13 3.66c.28 4.17 1.63 9.21 4 10.44 1.81 1 5 1.28 7.26 1.51l.9.09.91.1a45 45 0 0 0 14.85-1 21.57 21.57 0 0 0 4.61-1.85 3.93 3.93 0 0 0 2.11-4.59c-.14-.7-.33-1.4-.52-2.07s-.36-1.28-.49-1.93a33 33 0 0 1 -.61-4c-.08-1 .29-2.56 1.31-2.94 9.84-3.58 20.94-10 25.92-12.83.84-.49 1.51-.87 2-1.11 1.39-.77 3.34-1.93 5.81-3.39 4.51-2.68 10.69-6.35 17.61-10.11 4.56-2.48 10.55-5.79 16.34-9.4 9.32-5.81 18.51-9.2 28.1-10.37 3.76-.46 7.55-1.11 11.22-1.73 3.11-.54 6.32-1.09 9.49-1.52a48 48 0 0 1 10.89-.15 76.18 76.18 0 0 1 11.66 2.1 34.94 34.94 0 0 1 13.81 7 19.42 19.42 0 0 1 2.34 2.53c.26.31.51.62.81 1l-.78.48a18.78 18.78 0 0 1 -2 1.11 229.58 229.58 0 0 0 -21.73 11.89c-2.37 1.41-4.75 2.83-7.19 4.24-1.61.94-3.2 1.94-4.73 2.9-1 .61-1.94 1.22-2.92 1.81a13.49 13.49 0 0 1 -7.94 1.7c-10.08-1.25-19.85.7-29.82 3a93.2 93.2 0 0 0 -30.4 13.22c-5.29 3.47-10.79 5.62-17.43 7.79-1.4.46-2.8 1.06-4.16 1.64-1.06.45-2.16.92-3.22 1.31a62.43 62.43 0 0 0 -9.46 4.65s-4.55 2.81-6.75 4c-7.6 4.08-16.21 6.93-21.42 7.09a78.06 78.06 0 0 1 -9.72-.17c-5.59-.52-9.73-1.86-12.67-4.08-3.73-2.95-5.36-7.29-4.83-13.01zm37.42 32.6c-.32 1.09-2.87 3-7.56 2.52-2.28-.21-4.59-.5-6.83-.77l-2.28-.27-1.46-.17c-.85-.1-1.7-.19-2.55-.31a15.71 15.71 0 0 1 -2.09-.47 1.22 1.22 0 0 1 -1-1.39c.05-.88.09-1.75.14-2.63.09-1.79.18-3.64.33-5.45 0-.5.13-.78.26-.89s.41-.14.88-.1h.31c1.23.15 2.46.32 3.75.5l2.34.32c4.31.3 9.19.63 14-.57a3 3 0 0 1 1-.12c.42 0 .74.26 1 1.26a15.08 15.08 0 0 1 -.2 8.54zm-27.4 12.4c-9.53-3.73-9.14-9.71-8.86-14.08v-.22c.3-4.75 1.3-7.26 6.13-8.68a.9.9 0 0 1 .8.12 3.12 3.12 0 0 1 .67 2.32c0 .67-.2 2.17-.39 3.63s-.4 3-.41 3.77c-.05 2.85.68 3.83 2.9 5.33 1.6 1.08 7.41 1.69 13 2.29 1.9.2 3.69.39 5.15.58l.59.07a20 20 0 0 0 7-.77c4.7-1.23 7-4.57 6.76-9.93a23.78 23.78 0 0 0 -.71-5.44c-.91-3.28-.69-4.65.94-5.87 2.39-1.11 5-2.43 7.9-4 .71-.38 1.48-.73 2.37-1.13a61.43 61.43 0 0 0 7.33-3.83 81.39 81.39 0 0 1 15.83-6.95 70.52 70.52 0 0 0 14.81-6.53 101.92 101.92 0 0 1 41.11-15l.56-.07c4.78-1 12.85-.66 13.15-.59a43 43 0 0 1 -4.13 2.67c-.89.56-1.82 1.14-2.06 1.26a43.2 43.2 0 0 0 -4.89 2.92c-1.18.78-2.41 1.58-3.62 2.25-15.29 9.12-30.8 18.17-45.79 26.91q-9 5.27-18.17 10.61c-3.52 2.26-7.13 4.19-10.62 6.05s-7.19 3.84-10.77 6.15c-2.19 1.41-16.91 10.77-16.91 10.77-4.29-.67-12.56-1.85-19.63-4.61zm121.47-13.5c.33.13.64.27 1 .41l.39.18.67.27c.28.11.55.22.82.35a21.72 21.72 0 0 0 7.75 2.14c3.88.38 4.12 1 5.68 4.86.21.54.45 1.12.72 1.76a62.31 62.31 0 0 0 5 9.65 30.4 30.4 0 0 0 7.33 8.56c2.49 1.83 3.84 4.56 4.15 8.33.07.92.13 1.85.18 2.77.06 1.13.13 2.3.23 3.47l.08.79a24.46 24.46 0 0 0 .5 3.53 1.54 1.54 0 0 1 -.83 1.76 1.2 1.2 0 0 0 -.63.83 16 16 0 0 1 -5.55 1.58h-.47c-1.23.08-2.44.07-3.85.06h-2l-3.3-.71c-2.84-.62-5.77-1.26-8.72-1.94l-2.28-.53a73.1 73.1 0 0 0 -12.53-2.19 28.11 28.11 0 0 0 -3.57 0 9.14 9.14 0 0 1 -5.73-1.36c-.19-.13-.39-.24-.58-.35s-.41-.23-.59-.36c-8.5-6.25-18-10.05-26.92-13.22l-3.29-1.12c-1.54-.51-3.13-1-4.68-1.61-.27-.1-.71-.23-1.23-.37-1.43-.39-4.39-1.2-4.5-2.1 0-.3.16-.65.59-1l.06-.08 3.63-2c6.74-3.69 13.54-7.36 20.12-10.92l.92-.5h.22l.17-.09c7.07-3.82 18.39-9.07 22.93-11.16l.29-.13a10.47 10.47 0 0 1 1.4-.23 15.86 15.86 0 0 1 2.65 0 23.81 23.81 0 0 1 3.81.67zm-69.31 64.76a1.37 1.37 0 0 1 -1.12.42 11.09 11.09 0 0 1 -2.07-.76 54.71 54.71 0 0 0 -18-5 51.17 51.17 0 0 0 -5.26-.21 33.86 33.86 0 0 1 -3.59-.16l-1.62-.18c-1.62-.22-1.73-.68-1.71-1.43 0-1.37.65-4 1.78-4.05a50.31 50.31 0 0 1 9.27 0c.76.12 1.68.22 2.69.34a55.91 55.91 0 0 1 8 1.32 49.69 49.69 0 0 1 6.18 2.25c.92.37 1.84.76 2.79 1.12 2.22.86 3.42 1.83 3.75 3.08a4.93 4.93 0 0 1 -1.05 3.26zm349.06-49.3a72.68 72.68 0 0 1 -10.11 23.56 87 87 0 0 0 -9.58 18.32 91.5 91.5 0 0 0 -4.67 18.72c-.47 3.5-.85 7.07-1.22 10.53-.3 2.82-.61 5.75-1 8.62a51 51 0 0 1 -1.51 7.82c-.71 2.49-1.43 2.68-3.91 2.11-1.59-.37-3.23-.62-4.84-.87-2.45-.4-4.91-.77-7.36-1.15-3.23-.51-6.47-1-9.7-1.53l-.79-.13c-6.31-1-12.83-2.1-19.36-1.85a53.57 53.57 0 0 0 -9.59 1.16c-10.13 2.23-18.43 4.21-26.13 6.21-3.76 1-7.54 2.13-11.2 3.25-2.42.75-4.94 1.52-7.41 2.23a107.1 107.1 0 0 1 -29.14 3.89 180.2 180.2 0 0 1 -20.51-1.09 163.46 163.46 0 0 1 -21.11-4.08c-6.49-1.57-13.21-2.95-20-4.12l-1.6-.27c-9.6-1.64-19.54-3.34-29.19-5.62a77 77 0 0 0 -22.89-2.11c-7.08.45-12.71-.13-17.69-1.82a45.29 45.29 0 0 1 -10.85-5.59c-3.64-2.45-7.18-5-10.52-7.51a98.56 98.56 0 0 0 -21.66-12.77c-1.54-.64-3.2-1.19-4.8-1.72-.72-.24-1.41-.47-2.05-.7l-1.32-.43c-1.11-.34-1.62-.5-2-1.08-.54-.78-.69-1.12.09-2.49a5.91 5.91 0 0 0 -.19-6.18 13.93 13.93 0 0 0 -8.29-5.91l-2.48-.77a55.79 55.79 0 0 0 -14.48-3c-.75-.05-1.57-.08-2.44-.11a28.9 28.9 0 0 1 -4.86-.41 6.24 6.24 0 0 1 -.8-.19 3.79 3.79 0 0 1 -1.61-.7l-.23-.14-.2-.36a3.11 3.11 0 0 1 .19-3.54c3.07-5.39 7.14-7.87 12.7-10.14a38.24 38.24 0 0 1 16-2.59l1.2.05h.8a88.71 88.71 0 0 1 44.47 14.73c2.6 1.71 5.17 3.58 7.65 5.38 1.33 1 2.66 1.94 4 2.9.23.16 1.27 1 2.47 2 4 3.41 6.19 5.17 6.72 5.36h.18a.46.46 0 0 0 .46-.22c.26-.41 0-1-2.05-4.23a24.64 24.64 0 0 1 -1.93-3.36 1.47 1.47 0 0 1 .19-1.26 2.33 2.33 0 0 1 1.87-.43 77.75 77.75 0 0 1 9.27 1.14c2.14.41 4.3 1 6.39 1.52 1.09.29 2.19.58 3.29.84a40.74 40.74 0 0 0 6 1 55.79 55.79 0 0 0 8.72.08 12 12 0 0 0 3.54-.87 78.53 78.53 0 0 0 12.18-6c2.24-1.39 4.56-2.73 6.81-4l3.15-1.83c8.31-4.88 17.15-7.05 25.56-6.27 1 .09 1.81.21 2.39.29.33.05.59.09.77.1a.82.82 0 0 0 .51-.05 2.35 2.35 0 0 1 .4-.17c.22-.07.73-.24.59-.84a.89.89 0 0 0 -.22-.53c-.81-1-4.62-2.31-9.34-2.75a30.5 30.5 0 0 0 -3.69-.14l-1 .05c-3.28.14-10.09.45-19.48 5.74l-.69.35-.94.35c-1.17.43-7.52 3.33-8.29 3.78a1.28 1.28 0 0 1 -1.44-.23 10 10 0 0 1 -.89-2.46 74 74 0 0 1 -.32-8.53 8.81 8.81 0 0 0 -.07-1.29 7.36 7.36 0 0 0 -2.18-4.48c-.41-.4-.81-.78-1.23-1.16s-.89-.77-1.31-1.09c-.75-.56-1.49-1.18-2.21-1.82-4.75-4.31-8.15-10.18-10.12-17.45-.25-.92-.47-1.68-.74-2.43a8 8 0 0 0 -2-3.28 5.55 5.55 0 0 0 -3.24-1.39h-.19a39.24 39.24 0 0 1 -10.82-2.6h-.09a13.84 13.84 0 0 1 -1.78-.72l-.33-.11a18.74 18.74 0 0 0 -2.5-.9l.73-.42a.39.39 0 0 0 .18-.18c.57-.4 3.34-1.83 5.39-2.88a33.75 33.75 0 0 0 4.61-2.52c1-.64 9.89-5.72 18.48-10.64 10.16-5.82 20.67-11.84 21.75-12.54a39.54 39.54 0 0 1 4.39-2.47 3.79 3.79 0 0 1 4 .43l1 .84c11.35 11.42 22.45 15.46 27.95 14.38a.93.93 0 0 0 .77-.82.8.8 0 0 0 -.62-.79c-.15-.05-15.34-5.39-24.73-17a3.05 3.05 0 0 1 -.55-1.27c.06-.64.73-1.38 2.23-2.46a23.26 23.26 0 0 1 2.93-1.87c11.15-5.95 22-12.88 32.39-19.58l4-2.57c3.94-2.53 8-5 11.91-7.46 3-1.87 6.06-3.74 9.07-5.64 1.24-.78 2.43-1.67 3.59-2.52.67-.5 1.34-1 2-1.47 3.71-2.62 4.12-2.44 7.46.34a108.89 108.89 0 0 1 15 15.3 189.8 189.8 0 0 1 12.47 17.44 61.3 61.3 0 0 1 4.78 9.15 81.68 81.68 0 0 0 11.69 19.47 85.56 85.56 0 0 0 16.55 15.55l1.3.95c1.19.87 2.42 1.76 3.65 2.6a18.47 18.47 0 0 1 3.87 3.51c2.58 3.21 3.75 7.13 3.58 12v.39c0 1.16-.08 2.35-.19 3.5a13.83 13.83 0 0 1 -1.13 4.83c-1 2.52-.86 3.23 0 3.89a1.61 1.61 0 0 0 1.75 0 3.72 3.72 0 0 0 1.31-2.17c.09-.28.26-.75.48-1.33.52-1.41 1.31-3.53 1.83-5.37.16-.55.29-1.1.42-1.65.17-.71.34-1.44.56-2.14a2.93 2.93 0 0 1 2.63-2.19l1.16-.1a25.24 25.24 0 0 1 4.25-.18 144.63 144.63 0 0 0 19-.41c2-.13 3.91-.26 5.86-.36a63.7 63.7 0 0 0 8.74-1.28h.22a51.49 51.49 0 0 1 16-1 16.07 16.07 0 0 1 3.86 1 3.71 3.71 0 0 1 1.49 1 2.74 2.74 0 0 1 .63 2.07c-.05.61-.1 1.24-.15 1.86a36.2 36.2 0 0 1 -.68 4.56z"/></g></svg>